HIERARCHY
ROOT Pelvis
{
	OFFSET 0.000000 0.000000 0.000000
	CHANNELS 6 Xposition Yposition Zposition Xrotation Yrotation Zrotation
	JOINT LeftUpLeg_virtual
	{
		OFFSET 0.000000 0.000000 0.000000
		CHANNELS 3 Xrotation Yrotation Zrotation
		JOINT LeftUpLeg
		{
			OFFSET 18.735201 -5.666702 -4.541200
			CHANNELS 3 Xrotation Yrotation Zrotation
			JOINT LeftLeg
			{
				OFFSET -0.021200 -31.938179 0.493100
				CHANNELS 3 Xrotation Yrotation Zrotation
				JOINT LeftFoot
				{
					OFFSET 0.021200 -31.938179 -4.336299
					CHANNELS 3 Xrotation Yrotation Zrotation
					JOINT LeftToeBase
					{
						OFFSET 0.943001 -26.722000 15.023500
						CHANNELS 3 Xrotation Yrotation Zrotation
						End Site
						{
							OFFSET 0 0 0
						}
					}
				}
			}
		}
	}
	JOINT RightUpLeg_virtual
	{
		OFFSET 0.000000 0.000000 0.000000
		CHANNELS 3 Xrotation Yrotation Zrotation
		JOINT RightUpLeg
		{
			OFFSET -18.735201 -5.666702 -4.541200
			CHANNELS 3 Xrotation Yrotation Zrotation
			JOINT RightLeg
			{
				OFFSET 0.018946 -31.938133 0.493100
				CHANNELS 3 Xrotation Yrotation Zrotation
				JOINT RightFoot
				{
					OFFSET -0.018946 -31.938126 -4.336299
					CHANNELS 3 Xrotation Yrotation Zrotation
					JOINT RightToeBase
					{
						OFFSET -0.943001 -26.722004 15.023500
						CHANNELS 3 Xrotation Yrotation Zrotation
						End Site
						{
							OFFSET 0 0 0
						}
					}
				}
			}
		}
	}
	JOINT Hips_virtual
	{
		OFFSET 0.000000 0.000000 0.000000
		CHANNELS 3 Xrotation Yrotation Zrotation
		JOINT Hips
		{
			OFFSET -0.000000 -0.000000 -0.000000
			CHANNELS 3 Xrotation Yrotation Zrotation
			JOINT Spine
			{
				OFFSET 0.000000 10.199997 -0.299500
				CHANNELS 3 Xrotation Yrotation Zrotation
				JOINT Spine1
				{
					OFFSET 0.000000 11.900002 -1.516600
					CHANNELS 3 Xrotation Yrotation Zrotation
					JOINT Spine2
					{
						OFFSET 0.000000 13.600006 -2.842500
						CHANNELS 3 Xrotation Yrotation Zrotation
						JOINT Neck_virtual
						{
							OFFSET 0.000000 0.000000 0.000000
							CHANNELS 3 Xrotation Yrotation Zrotation
							JOINT Neck
							{
								OFFSET 0.000000 9.624100 -2.890100
								CHANNELS 3 Xrotation Yrotation Zrotation
								JOINT Head
								{
									OFFSET 0.000000 14.068802 -1.351900
									CHANNELS 3 Xrotation Yrotation Zrotation
									End Site
									{
										OFFSET 0 0 0
									}
								}
							}
						}
						JOINT LeftShoulder_virtual
						{
							OFFSET 0.000000 0.000000 0.000000
							CHANNELS 3 Xrotation Yrotation Zrotation
							JOINT LeftShoulder
							{
								OFFSET 15.263000 10.923401 -0.547700
								CHANNELS 3 Xrotation Yrotation Zrotation
								JOINT LeftArm
								{
									OFFSET 25.438599 -2.830597 -13.032500
									CHANNELS 3 Xrotation Yrotation Zrotation
									JOINT LeftForeArm
									{
										OFFSET 29.960503 0.000000 0.000000
										CHANNELS 3 Xrotation Yrotation Zrotation
										JOINT LeftHand
										{
											OFFSET 27.849251 0.000000 0.000000
											CHANNELS 3 Xrotation Yrotation Zrotation
											End Site
											{
												OFFSET 0 0 0
											}
										}
									}
								}
							}
						}
						JOINT RightShoulder_virtual
						{
							OFFSET 0.000000 0.000000 0.000000
							CHANNELS 3 Xrotation Yrotation Zrotation
							JOINT RightShoulder
							{
								OFFSET -15.263000 10.923401 -0.547700
								CHANNELS 3 Xrotation Yrotation Zrotation
								JOINT RightArm
								{
									OFFSET -25.438599 -2.830597 -13.032500
									CHANNELS 3 Xrotation Yrotation Zrotation
									JOINT RightForeArm
									{
										OFFSET -29.960503 0.000000 0.000000
										CHANNELS 3 Xrotation Yrotation Zrotation
										JOINT RightHand
										{
											OFFSET -27.849251 0.000000 0.000000
											CHANNELS 3 Xrotation Yrotation Zrotation
											End Site
											{
												OFFSET 0 0 0
											}
										}
									}
								}
							}
						}
					}
				}
			}
		}
	}
}
MOTION
Frames: 8
Frame Time: 0.03333333
-27.948673 47.695789 269.708496 0.000000 0.000000 0.000000 -173.038075 4.143857 -146.013899 -119.123663 -11.460119 22.625773 93.591760 0.180487 3.456384 29.636317 -3.502914 -0.526289 0.000000 0.000000 0.000000 -144.795994 10.331457 163.196415 -85.732999 7.267049 -12.604471 99.789631 -8.083013 -8.544103 39.539463 -5.006734 -12.061932 0.000000 0.000000 0.000000 -43.597975 -78.748536 -36.186598 -101.108882 -70.234036 -112.563717 15.823622 -3.216278 -6.753741 4.824770 -0.883996 -2.612595 0.000000 0.000000 0.000000 6.502450 -0.509458 -0.447260 2.402017 0.528686 -0.598522 0.000000 0.000000 0.000000 3.294850 0.506920 -1.408434 2.060738 -2.321904 -8.898158 -14.675969 -31.098715 -47.126441 7.508667 -62.654152 -2.024350 0.000000 0.000000 0.000000 0.991957 0.647050 -1.997151 3.063617 10.304699 -8.206093 -17.705423 22.743587 22.703600 6.094442 74.373547 -11.138560 0.000000 0.000000 0.000000 
-27.954208 47.770256 269.747040 0.000000 0.000000 0.000000 -173.174706 4.422776 -146.099864 -119.221089 -11.520097 22.592958 93.633438 0.173477 3.442630 29.666046 -3.505525 -0.553231 0.000000 0.000000 0.000000 -144.578972 10.116558 162.914833 -85.925515 7.199085 -12.482874 99.829792 -8.085271 -8.522398 39.595740 -5.022788 -12.037460 0.000000 0.000000 0.000000 -43.246743 -78.702945 -35.870193 -101.117877 -70.144888 -112.537632 15.846018 -3.239741 -6.766663 4.842570 -0.903322 -2.629184 0.000000 0.000000 0.000000 6.449216 -0.522933 -0.453239 2.378541 0.512764 -0.592247 0.000000 0.000000 0.000000 3.217022 0.497528 -1.423291 1.970023 -2.455930 -8.837930 -14.694110 -31.140444 -46.954234 7.570081 -62.626086 -1.938954 0.000000 0.000000 0.000000 0.804802 0.608714 -2.077753 2.884041 10.103321 -8.551208 -18.055438 22.960671 22.606282 6.119709 74.816649 -11.251371 0.000000 0.000000 0.000000 
-27.965664 47.852169 269.778564 0.000000 0.000000 0.000000 -173.306939 4.687857 -146.201511 -119.311875 -11.580640 22.558230 93.672623 0.166586 3.428854 29.692953 -3.507864 -0.580078 0.000000 0.000000 0.000000 -144.382577 9.936485 162.625916 -86.108140 7.138597 -12.373060 99.858069 -8.085530 -8.503008 39.640284 -5.035129 -12.013196 0.000000 0.000000 0.000000 -42.903328 -78.667209 -35.561407 -101.230582 -70.066184 -112.591939 15.869586 -3.259315 -6.774934 4.861553 -0.920714 -2.642941 0.000000 0.000000 0.000000 6.403509 -0.532856 -0.457569 2.358557 0.497954 -0.585439 0.000000 0.000000 0.000000 3.147418 0.489915 -1.436729 1.887126 -2.585370 -8.777030 -14.691718 -31.194457 -46.778910 7.647801 -62.611388 -1.842082 0.000000 0.000000 0.000000 0.638974 0.574269 -2.146996 2.722312 9.920348 -8.850703 -18.371322 23.174738 22.499031 6.152829 75.210874 -11.366521 0.000000 0.000000 0.000000 
-27.977865 47.928791 269.791901 0.000000 0.000000 0.000000 -173.412506 4.927732 -146.296860 -119.401406 -11.631647 22.512285 93.697443 0.153424 3.414551 29.706945 -3.516252 -0.614374 0.000000 0.000000 0.000000 -144.188258 9.784883 162.332778 -86.280124 7.079167 -12.273823 99.876422 -8.084479 -8.485218 39.674438 -5.044896 -11.988890 0.000000 0.000000 0.000000 -42.573928 -78.641295 -35.265482 -101.439436 -69.989167 -112.721467 15.889769 -3.278530 -6.779705 4.879227 -0.937978 -2.654764 0.000000 0.000000 0.000000 6.363136 -0.540976 -0.461010 2.340889 0.483650 -0.578564 0.000000 0.000000 0.000000 3.083554 0.482609 -1.449410 1.809640 -2.712276 -8.718376 -14.677054 -31.248310 -46.605451 7.729690 -62.597796 -1.744452 0.000000 0.000000 0.000000 0.488370 0.541515 -2.207694 2.572464 9.749243 -9.116097 -18.676095 23.386657 22.372652 6.184615 75.562957 -11.483673 0.000000 0.000000 0.000000 
-27.992380 47.995937 269.806671 0.000000 0.000000 0.000000 -173.539753 5.161002 -146.398753 -119.487712 -11.694759 22.471240 93.723992 0.144932 3.401609 29.719854 -3.520208 -0.642093 0.000000 0.000000 0.000000 -143.960826 9.638467 162.024737 -86.448762 7.009412 -12.190287 99.888901 -8.084551 -8.466836 39.697992 -5.055604 -11.963507 0.000000 0.000000 0.000000 -42.247152 -78.620491 -34.971446 -101.701681 -69.913775 -112.897071 15.901618 -3.297226 -6.781255 4.893043 -0.955090 -2.664391 0.000000 0.000000 0.000000 6.325747 -0.547877 -0.464994 2.324646 0.469696 -0.572470 0.000000 0.000000 0.000000 3.026281 0.475430 -1.463325 1.738574 -2.836825 -8.669830 -14.651594 -31.292040 -46.444781 7.807378 -62.575297 -1.657925 0.000000 0.000000 0.000000 0.350346 0.510147 -2.263029 2.433924 9.588548 -9.361250 -18.988518 23.604553 22.216483 6.219548 75.886434 -11.615523 0.000000 0.000000 0.000000 
-28.002665 48.061554 269.819946 0.000000 0.000000 0.000000 -173.659076 5.378055 -146.491220 -119.570466 -11.754844 22.430906 93.741881 0.136124 3.388172 29.725963 -3.523898 -0.670820 0.000000 0.000000 0.000000 -143.744268 9.499679 161.741625 -86.605972 6.941843 -12.104290 99.896653 -8.080641 -8.450513 39.715457 -5.059834 -11.935709 0.000000 0.000000 0.000000 -41.935873 -78.595765 -34.686477 -101.922637 -69.805797 -113.006101 15.901246 -3.314441 -6.778096 4.900340 -0.971839 -2.670695 0.000000 0.000000 0.000000 6.289304 -0.554302 -0.469747 2.308914 0.455900 -0.567353 0.000000 0.000000 0.000000 2.975485 0.467783 -1.476889 1.674151 -2.959528 -8.625486 -14.604326 -31.328630 -46.285088 7.889908 -62.539965 -1.573253 0.000000 0.000000 0.000000 0.224030 0.479008 -2.314661 2.306954 9.434857 -9.593922 -19.302644 23.836467 22.041415 6.274568 76.201238 -11.774876 0.000000 0.000000 0.000000 
-28.012262 48.118839 269.833649 0.000000 0.000000 0.000000 -173.779137 5.567134 -146.561830 -119.646596 -11.815502 22.397273 93.749674 0.132707 3.374556 29.724553 -3.521135 -0.694161 0.000000 0.000000 0.000000 -143.552627 9.362201 161.478144 -86.756585 6.881661 -12.020747 99.899153 -8.075096 -8.436104 39.725323 -5.060607 -11.907937 0.000000 0.000000 0.000000 -41.632318 -78.573608 -34.407027 -102.159194 -69.693386 -113.120247 15.893936 -3.330615 -6.773681 4.904088 -0.988037 -2.675832 0.000000 0.000000 0.000000 6.253445 -0.560928 -0.474725 2.293456 0.441619 -0.562797 0.000000 0.000000 0.000000 2.928276 0.459775 -1.491193 1.614040 -3.081115 -8.588994 -14.553818 -31.352877 -46.138266 7.963927 -62.496081 -1.501163 0.000000 0.000000 0.000000 0.107392 0.446653 -2.365464 2.189704 9.280379 -9.824479 -19.617183 24.072848 21.832152 6.350032 76.494895 -11.967040 0.000000 0.000000 0.000000 
-28.026852 48.166859 269.843933 0.000000 0.000000 0.000000 -173.944373 5.776690 -146.636744 -119.727533 -11.897789 22.373388 93.768184 0.130184 3.363317 29.728016 -3.518989 -0.713523 0.000000 0.000000 0.000000 -143.300128 9.214507 161.221834 -86.899158 6.800469 -11.944616 99.908817 -8.072261 -8.418901 39.734994 -5.065005 -11.878020 0.000000 0.000000 0.000000 -41.308977 -78.555092 -34.106044 -102.436554 -69.614265 -113.264665 15.879053 -3.344081 -6.767211 4.903582 -1.002819 -2.679296 0.000000 0.000000 0.000000 6.216135 -0.567978 -0.480146 2.277409 0.427049 -0.558905 0.000000 0.000000 0.000000 2.882455 0.450881 -1.505991 1.556610 -3.202286 -8.560250 -14.511446 -31.366127 -46.011446 8.024828 -62.447313 -1.445478 0.000000 0.000000 0.000000 -0.002479 0.412138 -2.416039 2.080046 9.123151 -10.054972 -19.929478 24.312980 21.590812 6.449750 76.770056 -12.194831 0.000000 0.000000 0.000000 
